<svg width="48" height="48" viewBox="0 0 48 48" fill="none" xmlns="http://www.w3.org/2000/svg">
<path d="M0 16C0 7.16344 7.16344 0 16 0H48V48H0V16Z" fill="white"/>
<path d="M26.8 12.3C26.5 11.5 25.7 11 24.9 11C24.4 11 23.9 11.2 23.5 11.6C20.5 14.4 18 17.4 16 20.4C15.5 21.1 14.8 21.2 14.3 21C13.6 20.9 13.1 20.3 13.1 19.5V13.1C13.1 11.9 12.2 11 11.1 11C9.9 11 9 11.9 9 13.1V37.1C9 38.3 9.9 39.2 11.1 39.2C12.2 39.2 13.2 38.4 13.4 37.2C13.9 34.6 15.2 29.5 18.6 24.1C20.5 21 23.2 17.7 26.4 14.6C27 14 27.1 13.1 26.8 12.3Z" fill="#1A1239"/>
<path d="M41.2998 12.3C40.9998 11.5 40.2998 11 39.3998 11C38.8998 11 38.3998 11.2 37.9998 11.6C33.1998 16.3 29.4998 21.3 26.9998 26.6C26.6998 27.2 26.1998 27.5 25.5998 27.5C24.9998 27.5 24.4998 27.2 24.1998 26.6C24.1998 26.5 24.0998 26.5 24.0998 26.4C24.0998 26.3 23.9998 26.2 23.9998 26.2C23.6998 25.5 22.9998 25.1 22.1998 25C21.3998 25 20.6998 25.4 20.3998 26.1V26.2C20.0998 26.8 20.0998 27.5 20.3998 28.1C22.3998 32.1 23.1998 35.5 23.4998 37.5C23.6998 38.5 24.4998 39.3 25.4998 39.3H25.8998C26.8998 39.3 27.7998 38.5 27.8998 37.5C28.3998 34 30.6998 24.7 40.9998 14.7C41.4998 14 41.6998 13.1 41.2998 12.3Z" fill="#1A1239"/>
</svg>
