<svg width="24" height="24" viewBox="0 0 24 24" fill="none" xmlns="http://www.w3.org/2000/svg">
<path d="M20.8949 2H3.10383C2.49462 2 2 2.49364 2 3.10385V20.8952C2 21.5054 2.49462 21.9997 3.10383 21.9997H12.682V14.2546H10.0759V11.2358H12.682V9.0097C12.682 6.42692 14.259 5.01977 16.5635 5.01977C17.6683 5.01977 18.6157 5.10243 18.892 5.13833V7.83801L17.2936 7.83867C16.0406 7.83867 15.7989 8.43439 15.7989 9.30805V11.2348H18.7883L18.3974 14.2533H15.7985V21.9987H20.8945C21.5044 21.9987 21.9993 21.5037 21.9993 20.8952V3.10319C21.999 2.49364 21.5047 2 20.8949 2Z" fill="#1A1239"/>
</svg>
