<svg width="32" height="28" viewBox="0 0 32 28" fill="none" xmlns="http://www.w3.org/2000/svg">
<g clip-path="url(#clip0)">
<path d="M9.08642 12.7496C5.68136 18.1422 4.36449 23.3422 3.89418 25.9615C3.70606 26.9822 2.84068 27.7333 1.806 27.7333C0.808936 27.7333 0 26.9052 0 25.8844V1.84889C0 0.828148 0.808936 0 1.806 0H1.82481C2.82187 0 3.63081 0.828148 3.63081 1.84889V8.28148C3.63081 10.0919 5.90711 10.8237 6.92299 9.34074C8.82304 6.52889 11.2687 3.5437 14.3727 0.52C14.7113 0.192593 15.1628 0 15.6332 0C17.2887 0 18.0976 2.06074 16.8936 3.23556C13.545 6.52889 10.8924 9.86074 9.08642 12.7496Z" fill="#1A1239"/>
<path d="M31.4356 3.17778C21.1451 13.2119 18.8312 22.5333 18.3045 26.1541C18.1728 27.0593 17.4203 27.7333 16.5173 27.7333H16.3292H16.141C15.238 27.7333 14.4855 27.0593 14.3539 26.1541C14.0717 24.2859 13.3192 20.877 11.2498 16.6593C10.9864 16.12 11.0052 15.4652 11.2874 14.9259C11.2874 14.9067 11.3062 14.9067 11.3062 14.8874C12.0211 13.597 13.8459 13.6548 14.4855 14.9644C14.5608 15.0993 14.6172 15.2533 14.6925 15.3881C15.3509 16.7556 17.2698 16.7556 17.9282 15.3881C20.0352 10.997 23.4215 5.83556 28.8959 0.500741C29.2345 0.173333 29.6672 0 30.1375 0H30.1563C31.8118 0 32.6207 2.04148 31.4356 3.17778Z" fill="#1A1239"/>
</g>
<defs>
<clipPath id="clip0">
<rect width="32" height="27.7333" fill="white"/>
</clipPath>
</defs>
</svg>
