<svg width="40" height="40" viewBox="0 0 40 40" fill="none" xmlns="http://www.w3.org/2000/svg">
<path d="M21.8 7.3C21.5 6.5 20.7 6 19.9 6C19.4 6 18.9 6.2 18.5 6.6C15.5 9.4 13 12.4 11 15.4C10.5 16.1 9.8 16.2 9.3 16C8.6 15.9 8.1 15.3 8.1 14.5V8.1C8.1 6.9 7.2 6 6.1 6C4.9 6 4 6.9 4 8.1V32.1C4 33.3 4.9 34.2 6.1 34.2C7.2 34.2 8.2 33.4 8.4 32.2C8.9 29.6 10.2 24.5 13.6 19.1C15.5 16 18.2 12.7 21.4 9.6C22 9 22.1 8.1 21.8 7.3Z" fill="#1A1239"/>
<path d="M36.2998 7.3C35.9998 6.5 35.2998 6 34.3998 6C33.8998 6 33.3998 6.2 32.9998 6.6C28.1998 11.3 24.4998 16.3 21.9998 21.6C21.6998 22.2 21.1998 22.5 20.5998 22.5C19.9998 22.5 19.4998 22.2 19.1998 21.6C19.1998 21.5 19.0998 21.5 19.0998 21.4C19.0998 21.3 18.9998 21.2 18.9998 21.2C18.6998 20.5 17.9998 20.1 17.1998 20C16.3998 20 15.6998 20.4 15.3998 21.1V21.2C15.0998 21.8 15.0998 22.5 15.3998 23.1C17.3998 27.1 18.1998 30.5 18.4998 32.5C18.6998 33.5 19.4998 34.3 20.4998 34.3H20.8998C21.8998 34.3 22.7998 33.5 22.8998 32.5C23.3998 29 25.6998 19.7 35.9998 9.7C36.4998 9 36.6998 8.1 36.2998 7.3Z" fill="#1A1239"/>
</svg>
