<svg width="24" height="24" viewBox="0 0 24 24" fill="none" xmlns="http://www.w3.org/2000/svg">
<path fill-rule="evenodd" clip-rule="evenodd" d="M20 11.5002C20 6.06999 14.0662 2.31005 9.15088 4.7928L9.14709 4.79472L9.14709 4.79471C5.52862 6.60316 3.95647 11.2141 5.79263 14.8494C5.91284 15.0873 5.93303 15.3635 5.84871 15.6164L4.58117 19.4191L8.3838 18.1515C8.63674 18.0672 8.91289 18.0874 9.15088 18.2076C14.0075 20.6607 20.0139 16.8412 20 11.5028L20 11.5002ZM22 11.4991C21.9992 4.61399 14.5263 -0.161269 8.25106 3.00665C3.78432 5.24035 1.77608 10.7958 3.82401 15.366L2.05134 20.684C1.93157 21.0433 2.02509 21.4395 2.29292 21.7073C2.56075 21.9751 2.95692 22.0687 3.31625 21.9489L8.63399 20.1763C14.7713 22.9325 22.0163 18.1598 22 11.4991Z" fill="#98BAFF"/>
<path fill-rule="evenodd" clip-rule="evenodd" d="M16.7071 9.79289C17.0976 10.1834 17.0976 10.8166 16.7071 11.2071L14.2071 13.7071C13.8166 14.0976 13.1834 14.0976 12.7929 13.7071L11.5 12.4142L9.70711 14.2071C9.31658 14.5976 8.68342 14.5976 8.29289 14.2071C7.90237 13.8166 7.90237 13.1834 8.29289 12.7929L10.7929 10.2929C11.1834 9.90237 11.8166 9.90237 12.2071 10.2929L13.5 11.5858L15.2929 9.79289C15.6834 9.40237 16.3166 9.40237 16.7071 9.79289Z" fill="#98BAFF"/>
</svg>
